<svg xmlns="http://www.w3.org/2000/svg" version="1.1" xmlns:xlink="http://www.w3.org/1999/xlink" xmlns:svgjs="http://svgjs.dev/svgjs" width="1500" height="1530" viewBox="0 0 1500 1530"><g transform="matrix(1,0,0,1,-0.71947787651402,-2.4677419354839003)"><svg viewBox="0 0 243 248" data-background-color="#ffffff" preserveAspectRatio="xMidYMid meet" height="1530" width="1500" xmlns="http://www.w3.org/2000/svg" xmlns:xlink="http://www.w3.org/1999/xlink"><g id="tight-bounds" transform="matrix(1,0,0,1,0.11655541599526487,0.4000000000000057)"><svg viewBox="0 0 242.7668891680095 247.2" height="247.2" width="242.7668891680095"><g><svg viewBox="0 0 395.52 402.7425005736076" height="247.2" width="242.7668891680095"><g transform="matrix(1,0,0,1,0,238.73234480888146)"><svg viewBox="0 0 395.52 164.0101557647261" height="164.0101557647261" width="395.52"><g id="textblocktransform"><svg viewBox="0 0 395.52 164.0101557647261" height="164.0101557647261" width="395.52" id="textblock"><g><svg viewBox="0 0 395.52 108.89899033297529" height="108.89899033297529" width="395.52"><g transform="matrix(1,0,0,1,0,0)"><svg width="395.52" viewBox="-0.25 -37.7 139.64 38.45" height="108.89899033297529" data-palette-color="#ffffff"><path d="M17.85-34.55L24.35-34.55 15.25-13.15 15.25 0 8.85 0 8.85-13.1-0.25-34.55 6.5-34.55 12.15-18.3 17.85-34.55ZM36.35-27.15Q41.35-27.15 44.12-23.65 46.9-20.15 46.9-13.25L46.9-13.25Q46.9-6.65 44.1-2.95 41.3 0.75 36.35 0.75L36.35 0.75Q31.4 0.75 28.6-2.88 25.8-6.5 25.8-13.25L25.8-13.25Q25.8-19.95 28.6-23.55 31.4-27.15 36.35-27.15L36.35-27.15ZM36.35-22.5Q34.2-22.5 33.2-20.38 32.2-18.25 32.2-13.25L32.2-13.25Q32.2-8.2 33.2-6.08 34.2-3.95 36.35-3.95L36.35-3.95Q38.5-3.95 39.5-6.08 40.5-8.2 40.5-13.25L40.5-13.25Q40.5-18.3 39.5-20.4 38.5-22.5 36.35-22.5L36.35-22.5ZM60.95-27.15Q63.09-27.15 64.84-26.43 66.59-25.7 68.19-24.15L68.19-24.15 65.55-20.65Q64.44-21.55 63.47-21.98 62.49-22.4 61.34-22.4L61.34-22.4Q59.09-22.4 57.95-20.28 56.8-18.15 56.8-13.1L56.8-13.1Q56.8-8.2 57.97-6.2 59.14-4.2 61.34-4.2L61.34-4.2Q62.45-4.2 63.34-4.6 64.25-5 65.44-5.85L65.44-5.85 68.19-2.3Q65 0.75 61.05 0.75L61.05 0.75Q55.95 0.75 53.12-2.73 50.3-6.2 50.3-13L50.3-13Q50.3-17.4 51.59-20.6 52.89-23.8 55.32-25.48 57.74-27.15 60.95-27.15L60.95-27.15ZM80.64-27.15Q85.64-27.15 88.42-23.65 91.19-20.15 91.19-13.25L91.19-13.25Q91.19-6.65 88.39-2.95 85.59 0.75 80.64 0.75L80.64 0.75Q75.69 0.75 72.89-2.88 70.09-6.5 70.09-13.25L70.09-13.25Q70.09-19.95 72.89-23.55 75.69-27.15 80.64-27.15L80.64-27.15ZM80.64-22.5Q78.49-22.5 77.49-20.38 76.49-18.25 76.49-13.25L76.49-13.25Q76.49-8.2 77.49-6.08 78.49-3.95 80.64-3.95L80.64-3.95Q82.79-3.95 83.79-6.08 84.79-8.2 84.79-13.25L84.79-13.25Q84.79-18.3 83.79-20.4 82.79-22.5 80.64-22.5L80.64-22.5ZM108.69-37.7L114.84-37.05 114.84 0 109.39 0 109.09-3.05Q106.74 0.75 103.04 0.75L103.04 0.75Q98.94 0.75 96.77-2.93 94.59-6.6 94.59-13.2L94.59-13.2Q94.59-17.4 95.72-20.58 96.84-23.75 98.84-25.45 100.84-27.15 103.44-27.15L103.44-27.15Q106.64-27.15 108.69-24.5L108.69-24.5 108.69-37.7ZM104.79-3.9Q105.94-3.9 106.87-4.7 107.79-5.5 108.69-7L108.69-7 108.69-19.85Q107.09-22.55 105.04-22.55L105.04-22.55Q100.99-22.55 100.99-13.25L100.99-13.25Q100.99-8.2 101.99-6.05 102.99-3.9 104.79-3.9L104.79-3.9ZM139.39-13.85Q139.39-13.4 139.24-11.3L139.24-11.3 125.59-11.3Q125.79-7.2 127.01-5.58 128.24-3.95 130.49-3.95L130.49-3.95Q132.04-3.95 133.29-4.48 134.54-5 135.99-6.15L135.99-6.15 138.54-2.65Q135.04 0.75 130.14 0.75L130.14 0.75Q124.94 0.75 122.16-2.85 119.39-6.45 119.39-13L119.39-13Q119.39-19.55 122.04-23.35 124.69-27.15 129.54-27.15L129.54-27.15Q134.19-27.15 136.79-23.78 139.39-20.4 139.39-13.85L139.39-13.85ZM133.39-15.3L133.39-15.65Q133.39-19.4 132.49-21.13 131.59-22.85 129.59-22.85L129.59-22.85Q127.74-22.85 126.76-21.18 125.79-19.5 125.59-15.3L125.59-15.3 133.39-15.3Z" opacity="1" transform="matrix(1,0,0,1,0,0)" fill="#ffffff" class="wordmark-text-0" data-fill-palette-color="primary" id="text-0"></path></svg></g></svg></g><g transform="matrix(1,0,0,1,0,134.60742837482277)"><svg viewBox="0 0 395.52 29.40272738990333" height="29.40272738990333" width="395.52"><g transform="matrix(1,0,0,1,0,0)"><svg width="395.52" viewBox="0.7 -37.7 653.0899999999999 48.550000000000004" height="29.40272738990333" data-palette-color="#ff0000"><path d="M28.5-34.55L34.4-34.55 29.55 0 21.2 0 17.5-27.8 13.65 0 5.45 0 0.7-34.55 6.85-34.55 10.05-5.1 14.2-34.55 20.95-34.55 25-5.1 28.5-34.55ZM87.21-13.85Q87.21-13.4 87.06-11.3L87.06-11.3 73.41-11.3Q73.61-7.2 74.83-5.58 76.06-3.95 78.31-3.95L78.31-3.95Q79.86-3.95 81.11-4.48 82.36-5 83.81-6.15L83.81-6.15 86.36-2.65Q82.86 0.75 77.96 0.75L77.96 0.75Q72.76 0.75 69.98-2.85 67.21-6.45 67.21-13L67.21-13Q67.21-19.55 69.86-23.35 72.51-27.15 77.36-27.15L77.36-27.15Q82.01-27.15 84.61-23.78 87.21-20.4 87.21-13.85L87.21-13.85ZM81.21-15.3L81.21-15.65Q81.21-19.4 80.31-21.13 79.41-22.85 77.41-22.85L77.41-22.85Q75.56-22.85 74.58-21.18 73.61-19.5 73.41-15.3L73.41-15.3 81.21-15.3ZM134.06-27.15Q137.91-27.15 139.96-23.65 142.01-20.15 142.01-13.25L142.01-13.25Q142.01-6.75 139.71-3 137.41 0.75 133.41 0.75L133.41 0.75Q131.66 0.75 130.21-0.13 128.76-1 127.71-2.55L127.71-2.55 127.36 0 121.91 0 121.91-37 128.06-37.65 128.06-23.6Q129.11-25.3 130.64-26.23 132.16-27.15 134.06-27.15L134.06-27.15ZM131.76-3.9Q133.61-3.9 134.64-6 135.66-8.1 135.66-13.25L135.66-13.25Q135.66-18.6 134.74-20.58 133.81-22.55 132.11-22.55L132.11-22.55Q130.96-22.55 129.91-21.6 128.86-20.65 128.06-19.1L128.06-19.1 128.06-6.7Q128.71-5.45 129.69-4.67 130.66-3.9 131.76-3.9L131.76-3.9ZM225.13-34.55Q229.48-34.55 232.65-33.23 235.83-31.9 237.8-28.13 239.78-24.35 239.78-17.45L239.78-17.45Q239.78-7.7 235.9-3.85 232.03 0 225.78 0L225.78 0 217.43 0 217.43-34.55 225.13-34.55ZM226.08-29.8L223.78-29.8 223.78-4.75 226.13-4.75Q228.38-4.75 229.9-5.8 231.43-6.85 232.3-9.65 233.18-12.45 233.18-17.45L233.18-17.45Q233.18-22.55 232.25-25.25 231.33-27.95 229.8-28.88 228.28-29.8 226.08-29.8L226.08-29.8ZM293.64-13.85Q293.64-13.4 293.49-11.3L293.49-11.3 279.84-11.3Q280.04-7.2 281.26-5.58 282.49-3.95 284.74-3.95L284.74-3.95Q286.29-3.95 287.54-4.48 288.79-5 290.24-6.15L290.24-6.15 292.79-2.65Q289.29 0.75 284.39 0.75L284.39 0.75Q279.19 0.75 276.41-2.85 273.64-6.45 273.64-13L273.64-13Q273.64-19.55 276.29-23.35 278.94-27.15 283.79-27.15L283.79-27.15Q288.44-27.15 291.04-23.78 293.64-20.4 293.64-13.85L293.64-13.85ZM287.64-15.3L287.64-15.65Q287.64-19.4 286.74-21.13 285.84-22.85 283.84-22.85L283.84-22.85Q281.99-22.85 281.01-21.18 280.04-19.5 279.84-15.3L279.84-15.3 287.64-15.3ZM340.74-26.45L346.79-26.45 339.89 0 332.64 0 325.54-26.45 331.89-26.45 336.24-4.95 340.74-26.45ZM398.95-13.85Q398.95-13.4 398.8-11.3L398.8-11.3 385.15-11.3Q385.35-7.2 386.57-5.58 387.8-3.95 390.05-3.95L390.05-3.95Q391.6-3.95 392.85-4.48 394.1-5 395.55-6.15L395.55-6.15 398.1-2.65Q394.6 0.75 389.7 0.75L389.7 0.75Q384.5 0.75 381.72-2.85 378.95-6.45 378.95-13L378.95-13Q378.95-19.55 381.6-23.35 384.25-27.15 389.1-27.15L389.1-27.15Q393.75-27.15 396.35-23.78 398.95-20.4 398.95-13.85L398.95-13.85ZM392.95-15.3L392.95-15.65Q392.95-19.4 392.05-21.13 391.15-22.85 389.15-22.85L389.15-22.85Q387.3-22.85 386.32-21.18 385.35-19.5 385.15-15.3L385.15-15.3 392.95-15.3ZM439.26 0.75Q436.56 0.75 434.98-0.93 433.41-2.6 433.41-5.4L433.41-5.4 433.41-37.05 439.56-37.7 439.56-5.65Q439.56-5 439.86-4.6 440.16-4.2 440.76-4.2L440.76-4.2Q441.11-4.2 441.43-4.3 441.76-4.4 441.86-4.4L441.86-4.4 443.06-0.2Q441.36 0.75 439.26 0.75L439.26 0.75ZM485.91-27.15Q490.91-27.15 493.69-23.65 496.46-20.15 496.46-13.25L496.46-13.25Q496.46-6.65 493.66-2.95 490.86 0.75 485.91 0.75L485.91 0.75Q480.96 0.75 478.16-2.88 475.36-6.5 475.36-13.25L475.36-13.25Q475.36-19.95 478.16-23.55 480.96-27.15 485.91-27.15L485.91-27.15ZM485.91-22.5Q483.76-22.5 482.76-20.38 481.76-18.25 481.76-13.25L481.76-13.25Q481.76-8.2 482.76-6.08 483.76-3.95 485.91-3.95L485.91-3.95Q488.06-3.95 489.06-6.08 490.06-8.2 490.06-13.25L490.06-13.25Q490.06-18.3 489.06-20.4 488.06-22.5 485.91-22.5L485.91-22.5ZM543.62-27.15Q547.52-27.15 549.52-23.58 551.52-20 551.52-13.3L551.52-13.3Q551.52-6.8 549.25-3.03 546.97 0.75 542.92 0.75L542.92 0.75Q539.72 0.75 537.57-2.1L537.57-2.1 537.57 10.15 531.42 10.85 531.42-26.45 536.87-26.45 537.12-23.25Q538.42-25.25 540.02-26.2 541.62-27.15 543.62-27.15L543.62-27.15ZM541.27-3.95Q543.17-3.95 544.17-6.13 545.17-8.3 545.17-13.25L545.17-13.25Q545.17-18.45 544.32-20.5 543.47-22.55 541.67-22.55L541.67-22.55Q539.37-22.55 537.57-19.25L537.57-19.25 537.57-6.45Q539.17-3.95 541.27-3.95L541.27-3.95ZM605.38-13.85Q605.38-13.4 605.23-11.3L605.23-11.3 591.58-11.3Q591.78-7.2 593-5.58 594.23-3.95 596.48-3.95L596.48-3.95Q598.03-3.95 599.28-4.48 600.53-5 601.98-6.15L601.98-6.15 604.53-2.65Q601.03 0.75 596.13 0.75L596.13 0.75Q590.93 0.75 588.15-2.85 585.38-6.45 585.38-13L585.38-13Q585.38-19.55 588.03-23.35 590.68-27.15 595.53-27.15L595.53-27.15Q600.18-27.15 602.78-23.78 605.38-20.4 605.38-13.85L605.38-13.85ZM599.38-15.3L599.38-15.65Q599.38-19.4 598.48-21.13 597.58-22.85 595.58-22.85L595.58-22.85Q593.73-22.85 592.75-21.18 591.78-19.5 591.58-15.3L591.58-15.3 599.38-15.3ZM651.74-27.1Q652.89-27.1 653.79-26.75L653.79-26.75 652.79-20.85Q651.79-21.1 650.94-21.1L650.94-21.1Q649.04-21.1 647.94-19.45 646.84-17.8 646.24-14.55L646.24-14.55 646.24 0 640.09 0 640.09-26.45 645.44-26.45 645.89-21.85Q647.74-27.1 651.74-27.1L651.74-27.1Z" opacity="1" transform="matrix(1,0,0,1,0,0)" fill="#ff0000" class="slogan-text-1" data-fill-palette-color="secondary" id="text-1"></path></svg></g></svg></g></svg></g></svg></g><g transform="matrix(1,0,0,1,75.54432,0)"><svg viewBox="0 0 244.43135999999998 213.023906767034" height="213.023906767034" width="244.43135999999998"><g><svg xmlns="http://www.w3.org/2000/svg" xmlns:xlink="http://www.w3.org/1999/xlink" version="1.0" x="0" y="0" viewBox="1.118 4.1185758 47.921 41.76353899999999" enable-background="new 0 0 50 50" xml:space="preserve" height="213.023906767034" width="244.43135999999998" class="icon-icon-0" data-fill-palette-color="accent" id="icon-0"><g fill="#ff0000" data-fill-palette-color="accent"><g fill="#ff0000" data-fill-palette-color="accent"><polygon fill="#ff0000" points="10.821,24.951 21,32.193 21,39.035 1.118,24.891 21,11.118 21,17.9   " data-fill-palette-color="accent"></polygon></g><g fill="#ff0000" data-fill-palette-color="accent"><polygon fill="#ff0000" points="49.039,25.277 35.815,16.063 34.219,21.712 39.475,25.338 31.411,30.97 29,38.79 29,39.424   " data-fill-palette-color="accent"></polygon></g><rect x="25.577" y="3.983" transform="matrix(0.9606 0.278 -0.278 0.9606 8.0575 -6.8179)" fill="#ff0000" width="4.981" height="42.035" data-fill-palette-color="accent"></rect></g></svg></g></svg></g><g></g></svg></g><defs></defs></svg><rect width="242.7668891680095" height="247.2" fill="none" stroke="none" visibility="hidden"></rect></g></svg></g></svg>