<svg xmlns="http://www.w3.org/2000/svg" xmlns:xlink="http://www.w3.org/1999/xlink" width="500" zoomAndPan="magnify" viewBox="0 0 375 374.999991" height="500" preserveAspectRatio="xMidYMid meet" version="1.0"><defs><clipPath id="f3307e918e"><path d="M 37.5 149 L 221 149 L 221 354.234375 L 37.5 354.234375 Z M 37.5 149 " clip-rule="nonzero"/></clipPath><clipPath id="93fb05ebce"><path d="M 133 147 L 316.5 147 L 316.5 352 L 133 352 Z M 133 147 " clip-rule="nonzero"/></clipPath><clipPath id="c316f438ed"><path d="M 70 20.484375 L 284 20.484375 L 284 235 L 70 235 Z M 70 20.484375 " clip-rule="nonzero"/></clipPath><clipPath id="9ab56a742f"><path d="M 37.5 149 L 221 149 L 221 354.234375 L 37.5 354.234375 Z M 37.5 149 " clip-rule="nonzero"/></clipPath><clipPath id="c1ae30a07e"><path d="M 133 147 L 316.5 147 L 316.5 352 L 133 352 Z M 133 147 " clip-rule="nonzero"/></clipPath><clipPath id="343d486a78"><path d="M 70 20.484375 L 284 20.484375 L 284 235 L 70 235 Z M 70 20.484375 " clip-rule="nonzero"/></clipPath></defs><g clip-path="url(#f3307e918e)"><path fill="#db2f14" d="M 111.351562 149.488281 L 220.527344 202.492188 L 146.6875 354.230469 L 113.4375 282.4375 L 37.515625 301.230469 L 111.351562 149.488281 " fill-opacity="1" fill-rule="evenodd"/></g><path fill="#ff430e" d="M 127.339844 158.742188 L 203.449219 194.230469 L 147.675781 310.800781 L 126.089844 259.386719 L 70.203125 274.507812 L 127.339844 158.742188 " fill-opacity="1" fill-rule="evenodd"/><g clip-path="url(#93fb05ebce)"><path fill="#db2f14" d="M 242.101562 147.121094 L 133.121094 200.519531 L 207.515625 351.992188 L 240.503906 280.074219 L 316.492188 298.589844 L 242.101562 147.121094 " fill-opacity="1" fill-rule="evenodd"/></g><path fill="#ff430e" d="M 226.148438 156.433594 L 150.171875 192.195312 L 206.367188 308.566406 L 227.765625 257.070312 L 283.707031 271.992188 L 226.148438 156.433594 " fill-opacity="1" fill-rule="evenodd"/><g clip-path="url(#c316f438ed)"><path fill="#ffc50d" d="M 177.003906 20.492188 C 235.996094 20.492188 283.886719 68.332031 283.886719 127.253906 C 283.886719 186.179688 235.996094 234.015625 177.003906 234.015625 C 118.011719 234.015625 70.121094 186.179688 70.121094 127.253906 C 70.121094 68.332031 118.011719 20.492188 177.003906 20.492188 " fill-opacity="1" fill-rule="evenodd"/></g><path fill="#f59f0a" d="M 177.003906 43.480469 C 222.503906 43.480469 259.4375 81.019531 259.4375 127.253906 C 259.4375 173.492188 222.503906 211.03125 177.003906 211.03125 C 131.507812 211.03125 94.570312 173.492188 94.570312 127.253906 C 94.570312 81.019531 131.507812 43.480469 177.003906 43.480469 " fill-opacity="1" fill-rule="evenodd"/><path fill="#faf29f" d="M 108.242188 78.8125 C 108.359375 78.453125 108.71875 78.207031 109.125 78.207031 C 109.53125 78.207031 109.886719 78.453125 110.007812 78.8125 L 113.410156 88.964844 L 124.421875 92.101562 C 124.808594 92.214844 125.074219 92.546875 125.074219 92.917969 C 125.074219 93.292969 124.808594 93.621094 124.421875 93.734375 L 113.410156 96.871094 L 110.007812 107.027344 C 109.886719 107.382812 109.53125 107.625 109.125 107.625 C 108.71875 107.625 108.359375 107.382812 108.242188 107.027344 L 104.839844 96.871094 L 93.828125 93.734375 C 93.4375 93.621094 93.175781 93.292969 93.175781 92.917969 C 93.175781 92.546875 93.4375 92.214844 93.828125 92.101562 L 104.839844 88.964844 L 108.242188 78.8125 " fill-opacity="1" fill-rule="evenodd"/><path fill="#faf29f" d="M 243.308594 160.503906 C 243.429688 160.144531 243.792969 159.894531 244.203125 159.894531 C 244.617188 159.894531 244.976562 160.144531 245.101562 160.503906 L 248.554688 170.8125 L 259.726562 173.992188 C 260.121094 174.109375 260.390625 174.441406 260.390625 174.820312 C 260.390625 175.203125 260.121094 175.535156 259.726562 175.648438 L 248.554688 178.832031 L 245.101562 189.136719 C 244.976562 189.5 244.617188 189.75 244.203125 189.75 C 243.792969 189.75 243.429688 189.5 243.308594 189.136719 L 239.855469 178.832031 L 228.679688 175.648438 C 228.285156 175.535156 228.019531 175.203125 228.019531 174.820312 C 228.019531 174.441406 228.285156 174.109375 228.679688 173.992188 L 239.855469 170.8125 L 243.308594 160.503906 " fill-opacity="1" fill-rule="evenodd"/><path fill="#faf29f" d="M 92.28125 99.6875 C 92.363281 99.449219 92.601562 99.285156 92.875 99.285156 C 93.148438 99.285156 93.386719 99.449219 93.464844 99.6875 L 95.75 106.503906 L 103.140625 108.605469 C 103.398438 108.679688 103.578125 108.90625 103.578125 109.15625 C 103.578125 109.40625 103.398438 109.625 103.140625 109.699219 L 95.75 111.804688 L 93.464844 118.621094 C 93.386719 118.863281 93.148438 119.027344 92.875 119.027344 C 92.601562 119.027344 92.363281 118.863281 92.28125 118.621094 L 90 111.804688 L 82.609375 109.699219 C 82.351562 109.625 82.171875 109.40625 82.171875 109.15625 C 82.171875 108.90625 82.351562 108.679688 82.609375 108.605469 L 90 106.503906 L 92.28125 99.6875 " fill-opacity="1" fill-rule="evenodd"/><path fill="#faf29f" d="M 259.261719 143.535156 C 259.347656 143.273438 259.609375 143.09375 259.910156 143.09375 C 260.207031 143.09375 260.472656 143.273438 260.558594 143.535156 L 263.0625 151.007812 L 271.167969 153.316406 C 271.449219 153.402344 271.644531 153.644531 271.644531 153.917969 C 271.644531 154.191406 271.449219 154.433594 271.167969 154.519531 L 263.0625 156.828125 L 260.558594 164.300781 C 260.472656 164.5625 260.207031 164.742188 259.910156 164.742188 C 259.609375 164.742188 259.347656 164.5625 259.261719 164.300781 L 256.757812 156.828125 L 248.652344 154.519531 C 248.367188 154.433594 248.171875 154.191406 248.171875 153.917969 C 248.171875 153.644531 248.367188 153.402344 248.652344 153.316406 L 256.757812 151.007812 L 259.261719 143.535156 " fill-opacity="1" fill-rule="evenodd"/><path fill="#faf29f" d="M 169.433594 163.378906 C 169.433594 170.527344 175.359375 174.328125 181.566406 174.28125 C 187.757812 174.234375 193.640625 170.320312 193.640625 163.378906 L 193.640625 94.550781 C 193.640625 88.417969 191.425781 84.6875 188.617188 82.765625 C 185.621094 80.714844 181.582031 80.4375 177.34375 82.246094 C 177.351562 82.242188 160.167969 88.578125 160.167969 88.578125 C 155.273438 90.207031 152.757812 93.398438 151.828125 96.738281 C 149.601562 104.726562 156.945312 114.476562 167.273438 111.125 C 167.359375 111.097656 167.441406 111.066406 167.523438 111.035156 L 169.433594 110.269531 L 169.433594 163.378906 " fill-opacity="1" fill-rule="nonzero"/><g clip-path="url(#9ab56a742f)"><path fill="#db2f14" d="M 111.351562 149.488281 L 220.527344 202.492188 L 146.6875 354.230469 L 113.4375 282.4375 L 37.515625 301.230469 L 111.351562 149.488281 " fill-opacity="1" fill-rule="evenodd"/></g><path fill="#ff430e" d="M 127.339844 158.742188 L 203.449219 194.230469 L 147.675781 310.800781 L 126.089844 259.386719 L 70.203125 274.507812 L 127.339844 158.742188 " fill-opacity="1" fill-rule="evenodd"/><g clip-path="url(#c1ae30a07e)"><path fill="#db2f14" d="M 242.101562 147.121094 L 133.121094 200.519531 L 207.515625 351.992188 L 240.503906 280.074219 L 316.492188 298.589844 L 242.101562 147.121094 " fill-opacity="1" fill-rule="evenodd"/></g><path fill="#ff430e" d="M 226.148438 156.433594 L 150.171875 192.195312 L 206.367188 308.566406 L 227.765625 257.070312 L 283.707031 271.992188 L 226.148438 156.433594 " fill-opacity="1" fill-rule="evenodd"/><g clip-path="url(#343d486a78)"><path fill="#ffc50d" d="M 177.003906 20.492188 C 235.996094 20.492188 283.886719 68.332031 283.886719 127.253906 C 283.886719 186.179688 235.996094 234.015625 177.003906 234.015625 C 118.011719 234.015625 70.121094 186.179688 70.121094 127.253906 C 70.121094 68.332031 118.011719 20.492188 177.003906 20.492188 " fill-opacity="1" fill-rule="evenodd"/></g><path fill="#f59f0a" d="M 177.003906 43.480469 C 222.503906 43.480469 259.4375 81.019531 259.4375 127.253906 C 259.4375 173.492188 222.503906 211.03125 177.003906 211.03125 C 131.507812 211.03125 94.570312 173.492188 94.570312 127.253906 C 94.570312 81.019531 131.507812 43.480469 177.003906 43.480469 " fill-opacity="1" fill-rule="evenodd"/><path fill="#faf29f" d="M 108.242188 78.8125 C 108.359375 78.453125 108.71875 78.207031 109.125 78.207031 C 109.53125 78.207031 109.886719 78.453125 110.007812 78.8125 L 113.410156 88.964844 L 124.421875 92.101562 C 124.808594 92.214844 125.074219 92.546875 125.074219 92.917969 C 125.074219 93.292969 124.808594 93.621094 124.421875 93.734375 L 113.410156 96.871094 L 110.007812 107.027344 C 109.886719 107.382812 109.53125 107.625 109.125 107.625 C 108.71875 107.625 108.359375 107.382812 108.242188 107.027344 L 104.839844 96.871094 L 93.828125 93.734375 C 93.4375 93.621094 93.175781 93.292969 93.175781 92.917969 C 93.175781 92.546875 93.4375 92.214844 93.828125 92.101562 L 104.839844 88.964844 L 108.242188 78.8125 " fill-opacity="1" fill-rule="evenodd"/><path fill="#faf29f" d="M 243.308594 160.503906 C 243.429688 160.144531 243.792969 159.894531 244.203125 159.894531 C 244.617188 159.894531 244.976562 160.144531 245.101562 160.503906 L 248.554688 170.8125 L 259.726562 173.992188 C 260.121094 174.109375 260.390625 174.441406 260.390625 174.820312 C 260.390625 175.203125 260.121094 175.535156 259.726562 175.648438 L 248.554688 178.832031 L 245.101562 189.136719 C 244.976562 189.5 244.617188 189.75 244.203125 189.75 C 243.792969 189.75 243.429688 189.5 243.308594 189.136719 L 239.855469 178.832031 L 228.679688 175.648438 C 228.285156 175.535156 228.019531 175.203125 228.019531 174.820312 C 228.019531 174.441406 228.285156 174.109375 228.679688 173.992188 L 239.855469 170.8125 L 243.308594 160.503906 " fill-opacity="1" fill-rule="evenodd"/><path fill="#faf29f" d="M 92.28125 99.6875 C 92.363281 99.449219 92.601562 99.285156 92.875 99.285156 C 93.148438 99.285156 93.386719 99.449219 93.464844 99.6875 L 95.75 106.503906 L 103.140625 108.605469 C 103.398438 108.679688 103.578125 108.90625 103.578125 109.15625 C 103.578125 109.40625 103.398438 109.625 103.140625 109.699219 L 95.75 111.804688 L 93.464844 118.621094 C 93.386719 118.863281 93.148438 119.027344 92.875 119.027344 C 92.601562 119.027344 92.363281 118.863281 92.28125 118.621094 L 90 111.804688 L 82.609375 109.699219 C 82.351562 109.625 82.171875 109.40625 82.171875 109.15625 C 82.171875 108.90625 82.351562 108.679688 82.609375 108.605469 L 90 106.503906 L 92.28125 99.6875 " fill-opacity="1" fill-rule="evenodd"/><path fill="#faf29f" d="M 259.261719 143.535156 C 259.347656 143.273438 259.609375 143.09375 259.910156 143.09375 C 260.207031 143.09375 260.472656 143.273438 260.558594 143.535156 L 263.0625 151.007812 L 271.167969 153.316406 C 271.449219 153.402344 271.644531 153.644531 271.644531 153.917969 C 271.644531 154.191406 271.449219 154.433594 271.167969 154.519531 L 263.0625 156.828125 L 260.558594 164.300781 C 260.472656 164.5625 260.207031 164.742188 259.910156 164.742188 C 259.609375 164.742188 259.347656 164.5625 259.261719 164.300781 L 256.757812 156.828125 L 248.652344 154.519531 C 248.367188 154.433594 248.171875 154.191406 248.171875 153.917969 C 248.171875 153.644531 248.367188 153.402344 248.652344 153.316406 L 256.757812 151.007812 L 259.261719 143.535156 " fill-opacity="1" fill-rule="evenodd"/><path fill="#faf29f" d="M 169.433594 163.378906 C 169.433594 170.527344 175.359375 174.328125 181.566406 174.28125 C 187.757812 174.234375 193.640625 170.320312 193.640625 163.378906 L 193.640625 94.550781 C 193.640625 88.417969 191.425781 84.6875 188.617188 82.765625 C 185.621094 80.714844 181.582031 80.4375 177.34375 82.246094 C 177.351562 82.242188 160.167969 88.578125 160.167969 88.578125 C 155.273438 90.207031 152.757812 93.398438 151.828125 96.738281 C 149.601562 104.726562 156.945312 114.476562 167.273438 111.125 C 167.359375 111.097656 167.441406 111.066406 167.523438 111.035156 L 169.433594 110.269531 L 169.433594 163.378906 " fill-opacity="1" fill-rule="nonzero"/></svg>