<svg xmlns="http://www.w3.org/2000/svg" xmlns:xlink="http://www.w3.org/1999/xlink" width="500" zoomAndPan="magnify" viewBox="0 0 375 374.999991" height="500" preserveAspectRatio="xMidYMid meet" version="1.0"><defs><clipPath id="ddddcc0669"><path d="M 121.40625 131 L 204 131 L 204 223.605469 L 121.40625 223.605469 Z M 121.40625 131 " clip-rule="nonzero"/></clipPath><clipPath id="1b524b20e9"><path d="M 164 130 L 246.65625 130 L 246.65625 223 L 164 223 Z M 164 130 " clip-rule="nonzero"/></clipPath><clipPath id="536235630d"><path d="M 136 73.605469 L 233 73.605469 L 233 170 L 136 170 Z M 136 73.605469 " clip-rule="nonzero"/></clipPath><clipPath id="001999dcd0"><path d="M 47.792969 157 L 218 157 L 218 347.25 L 47.792969 347.25 Z M 47.792969 157 " clip-rule="nonzero"/></clipPath><clipPath id="2482367644"><path d="M 136 155 L 306.542969 155 L 306.542969 346 L 136 346 Z M 136 155 " clip-rule="nonzero"/></clipPath><clipPath id="a8fe76ad17"><path d="M 78 37.5 L 277 37.5 L 277 236 L 78 236 Z M 78 37.5 " clip-rule="nonzero"/></clipPath></defs><g clip-path="url(#ddddcc0669)"><path fill="#db2f14" d="M 154.574219 131.578125 L 203.582031 155.398438 L 170.4375 223.597656 L 155.507812 191.328125 L 121.425781 199.777344 L 154.574219 131.578125 " fill-opacity="1" fill-rule="evenodd"/></g><path fill="#ff430e" d="M 161.75 135.734375 L 195.914062 151.683594 L 170.878906 204.078125 L 161.1875 180.96875 L 136.101562 187.765625 L 161.75 135.734375 " fill-opacity="1" fill-rule="evenodd"/><g clip-path="url(#1b524b20e9)"><path fill="#db2f14" d="M 213.269531 130.511719 L 164.347656 154.511719 L 197.742188 222.589844 L 212.550781 190.269531 L 246.664062 198.589844 L 213.269531 130.511719 " fill-opacity="1" fill-rule="evenodd"/></g><path fill="#ff430e" d="M 206.105469 134.699219 L 172 150.773438 L 197.226562 203.074219 L 206.835938 179.929688 L 231.945312 186.632812 L 206.105469 134.699219 " fill-opacity="1" fill-rule="evenodd"/><g clip-path="url(#536235630d)"><path fill="#cdcde9" d="M 184.046875 73.601562 C 210.527344 73.601562 232.027344 95.101562 232.027344 121.585938 C 232.027344 148.066406 210.527344 169.566406 184.046875 169.566406 C 157.5625 169.566406 136.0625 148.066406 136.0625 121.585938 C 136.0625 95.101562 157.5625 73.601562 184.046875 73.601562 " fill-opacity="1" fill-rule="evenodd"/></g><path fill="#aaaace" d="M 184.046875 83.933594 C 204.46875 83.933594 221.050781 100.804688 221.050781 121.585938 C 221.050781 142.363281 204.46875 159.234375 184.046875 159.234375 C 163.621094 159.234375 147.039062 142.363281 147.039062 121.585938 C 147.039062 100.804688 163.621094 83.933594 184.046875 83.933594 " fill-opacity="1" fill-rule="evenodd"/><path fill="#e7e8f0" d="M 153.175781 99.8125 C 153.230469 99.652344 153.390625 99.542969 153.574219 99.542969 C 153.753906 99.542969 153.914062 99.652344 153.96875 99.8125 L 155.496094 104.375 L 160.441406 105.785156 C 160.613281 105.835938 160.730469 105.984375 160.730469 106.152344 C 160.730469 106.320312 160.613281 106.46875 160.441406 106.519531 L 155.496094 107.929688 L 153.96875 112.492188 C 153.914062 112.652344 153.753906 112.765625 153.574219 112.765625 C 153.390625 112.765625 153.230469 112.652344 153.175781 112.492188 L 151.648438 107.929688 L 146.707031 106.519531 C 146.53125 106.46875 146.414062 106.320312 146.414062 106.152344 C 146.414062 105.984375 146.53125 105.835938 146.707031 105.785156 L 151.648438 104.375 L 153.175781 99.8125 " fill-opacity="1" fill-rule="evenodd"/><path fill="#e7e8f0" d="M 213.808594 136.527344 C 213.863281 136.367188 214.027344 136.253906 214.210938 136.253906 C 214.398438 136.253906 214.5625 136.367188 214.613281 136.527344 L 216.164062 141.160156 L 221.179688 142.589844 C 221.359375 142.640625 221.476562 142.792969 221.476562 142.960938 C 221.476562 143.132812 221.359375 143.285156 221.179688 143.335938 L 216.164062 144.765625 L 214.613281 149.398438 C 214.5625 149.5625 214.398438 149.671875 214.210938 149.671875 C 214.027344 149.671875 213.863281 149.5625 213.808594 149.398438 L 212.261719 144.765625 L 207.242188 143.335938 C 207.066406 143.285156 206.945312 143.132812 206.945312 142.960938 C 206.945312 142.792969 207.066406 142.640625 207.242188 142.589844 L 212.261719 141.160156 L 213.808594 136.527344 " fill-opacity="1" fill-rule="evenodd"/><path fill="#e7e8f0" d="M 146.011719 109.195312 C 146.046875 109.085938 146.15625 109.015625 146.277344 109.015625 C 146.398438 109.015625 146.507812 109.085938 146.542969 109.195312 L 147.566406 112.257812 L 150.886719 113.203125 C 151 113.238281 151.082031 113.335938 151.082031 113.449219 C 151.082031 113.5625 151 113.664062 150.886719 113.695312 L 147.566406 114.640625 L 146.542969 117.703125 C 146.507812 117.8125 146.398438 117.886719 146.277344 117.886719 C 146.15625 117.886719 146.046875 117.8125 146.011719 117.703125 L 144.984375 114.640625 L 141.667969 113.695312 C 141.550781 113.664062 141.472656 113.5625 141.472656 113.449219 C 141.472656 113.335938 141.550781 113.238281 141.667969 113.203125 L 144.984375 112.257812 L 146.011719 109.195312 " fill-opacity="1" fill-rule="evenodd"/><path fill="#e7e8f0" d="M 220.972656 128.902344 C 221.011719 128.785156 221.128906 128.703125 221.261719 128.703125 C 221.398438 128.703125 221.515625 128.785156 221.554688 128.902344 L 222.679688 132.261719 L 226.316406 133.296875 C 226.445312 133.335938 226.53125 133.445312 226.53125 133.566406 C 226.53125 133.691406 226.445312 133.800781 226.316406 133.839844 L 222.679688 134.875 L 221.554688 138.234375 C 221.515625 138.351562 221.398438 138.433594 221.261719 138.433594 C 221.128906 138.433594 221.011719 138.351562 220.972656 138.234375 L 219.847656 134.875 L 216.210938 133.839844 C 216.082031 133.800781 215.996094 133.691406 215.996094 133.566406 C 215.996094 133.445312 216.082031 133.335938 216.210938 133.296875 L 219.847656 132.261719 L 220.972656 128.902344 " fill-opacity="1" fill-rule="evenodd"/><path fill="#e7e8f0" d="M 169.707031 130.671875 C 167.9375 132.527344 167.6875 134.722656 168.398438 136.421875 C 169.117188 138.136719 170.863281 139.488281 173.441406 139.488281 L 194.875 139.488281 C 196.636719 139.488281 197.910156 138.8125 198.765625 137.859375 C 200.007812 136.476562 200.359375 134.390625 199.8125 132.570312 C 199.183594 130.484375 197.464844 128.785156 194.875 128.785156 L 188.464844 128.785156 C 188.050781 128.785156 187.617188 128.796875 187.175781 128.8125 C 188.851562 127.597656 190.550781 126.242188 192.554688 124.539062 C 192.585938 124.511719 192.613281 124.484375 192.644531 124.457031 C 198.503906 118.75 199.847656 112.089844 198.035156 106.902344 C 196.191406 101.617188 191.050781 97.6875 183.605469 97.6875 C 178.152344 97.6875 172.734375 99.941406 169.914062 105.449219 C 169.898438 105.480469 169.882812 105.507812 169.871094 105.539062 C 168.25 109.183594 169.785156 111.800781 171.914062 112.925781 C 174.109375 114.085938 177.148438 113.675781 178.820312 111.039062 C 179.917969 109.308594 181.792969 108.167969 183.605469 108.167969 C 185.660156 108.167969 186.976562 108.90625 187.496094 110.132812 C 188.375 112.191406 187.277344 115.0625 184.929688 116.898438 C 184.898438 116.925781 184.863281 116.957031 184.832031 116.984375 C 179.4375 121.878906 174.714844 125.335938 169.707031 130.671875 " fill-opacity="1" fill-rule="nonzero"/><g clip-path="url(#001999dcd0)"><path fill="#db2f14" d="M 116.308594 157.207031 L 217.554688 206.398438 L 149.078125 347.230469 L 118.242188 280.597656 L 47.832031 298.039062 L 116.308594 157.207031 " fill-opacity="1" fill-rule="evenodd"/></g><path fill="#ff430e" d="M 131.136719 165.796875 L 201.71875 198.730469 L 149.996094 306.921875 L 129.976562 259.203125 L 78.144531 273.238281 L 131.136719 165.796875 " fill-opacity="1" fill-rule="evenodd"/><g clip-path="url(#2482367644)"><path fill="#db2f14" d="M 237.566406 155.011719 L 136.5 204.570312 L 205.492188 345.148438 L 236.085938 278.40625 L 306.558594 295.589844 L 237.566406 155.011719 " fill-opacity="1" fill-rule="evenodd"/></g><path fill="#ff430e" d="M 222.769531 163.652344 L 152.308594 196.847656 L 204.429688 304.847656 L 224.273438 257.054688 L 276.152344 270.902344 L 222.769531 163.652344 " fill-opacity="1" fill-rule="evenodd"/><g clip-path="url(#a8fe76ad17)"><path fill="#cdcde9" d="M 177.195312 37.488281 C 231.902344 37.488281 276.320312 81.886719 276.320312 136.574219 C 276.320312 191.257812 231.902344 235.65625 177.195312 235.65625 C 122.484375 235.65625 78.066406 191.257812 78.066406 136.574219 C 78.066406 81.886719 122.484375 37.488281 177.195312 37.488281 " fill-opacity="1" fill-rule="evenodd"/></g><path fill="#aaaace" d="M 177.195312 58.824219 C 219.390625 58.824219 253.644531 93.660156 253.644531 136.574219 C 253.644531 179.484375 219.390625 214.324219 177.195312 214.324219 C 135 214.324219 100.742188 179.484375 100.742188 136.574219 C 100.742188 93.660156 135 58.824219 177.195312 58.824219 " fill-opacity="1" fill-rule="evenodd"/><path fill="#e7e8f0" d="M 113.421875 91.613281 C 113.535156 91.28125 113.863281 91.054688 114.242188 91.054688 C 114.617188 91.054688 114.949219 91.28125 115.0625 91.613281 L 118.214844 101.039062 L 128.429688 103.949219 C 128.785156 104.050781 129.03125 104.359375 129.03125 104.707031 C 129.03125 105.054688 128.785156 105.359375 128.429688 105.464844 L 118.214844 108.375 L 115.0625 117.800781 C 114.949219 118.132812 114.617188 118.359375 114.242188 118.359375 C 113.863281 118.359375 113.535156 118.132812 113.421875 117.800781 L 110.265625 108.375 L 100.054688 105.464844 C 99.695312 105.359375 99.449219 105.054688 99.449219 104.707031 C 99.449219 104.359375 99.695312 104.050781 100.054688 103.949219 L 110.265625 101.039062 L 113.421875 91.613281 " fill-opacity="1" fill-rule="evenodd"/><path fill="#e7e8f0" d="M 238.683594 167.433594 C 238.796875 167.097656 239.132812 166.867188 239.515625 166.867188 C 239.898438 166.867188 240.234375 167.097656 240.347656 167.433594 L 243.550781 176.996094 L 253.910156 179.953125 C 254.277344 180.058594 254.527344 180.367188 254.527344 180.71875 C 254.527344 181.070312 254.277344 181.382812 253.910156 181.488281 L 243.550781 184.441406 L 240.347656 194.007812 C 240.234375 194.34375 239.898438 194.574219 239.515625 194.574219 C 239.132812 194.574219 238.796875 194.34375 238.683594 194.007812 L 235.484375 184.441406 L 225.117188 181.488281 C 224.753906 181.382812 224.507812 181.070312 224.507812 180.71875 C 224.507812 180.367188 224.753906 180.058594 225.117188 179.953125 L 235.484375 176.996094 L 238.683594 167.433594 " fill-opacity="1" fill-rule="evenodd"/><path fill="#e7e8f0" d="M 98.621094 110.988281 C 98.695312 110.765625 98.917969 110.613281 99.171875 110.613281 C 99.421875 110.613281 99.648438 110.765625 99.722656 110.988281 L 101.835938 117.3125 L 108.691406 119.269531 C 108.933594 119.335938 109.09375 119.542969 109.09375 119.773438 C 109.09375 120.007812 108.933594 120.214844 108.691406 120.285156 L 101.835938 122.238281 L 99.722656 128.5625 C 99.648438 128.785156 99.421875 128.9375 99.171875 128.9375 C 98.917969 128.9375 98.695312 128.785156 98.621094 128.5625 L 96.503906 122.238281 L 89.652344 120.285156 C 89.410156 120.214844 89.246094 120.007812 89.246094 119.773438 C 89.246094 119.542969 89.410156 119.335938 89.652344 119.269531 L 96.503906 117.3125 L 98.621094 110.988281 " fill-opacity="1" fill-rule="evenodd"/><path fill="#e7e8f0" d="M 253.480469 151.683594 C 253.5625 151.441406 253.804688 151.273438 254.082031 151.273438 C 254.359375 151.273438 254.605469 151.441406 254.683594 151.683594 L 257.007812 158.621094 L 264.519531 160.761719 C 264.785156 160.839844 264.964844 161.0625 264.964844 161.320312 C 264.964844 161.574219 264.785156 161.800781 264.519531 161.878906 L 257.007812 164.019531 L 254.683594 170.957031 C 254.605469 171.199219 254.359375 171.367188 254.082031 171.367188 C 253.804688 171.367188 253.5625 171.199219 253.480469 170.957031 L 251.15625 164.019531 L 243.640625 161.878906 C 243.378906 161.800781 243.199219 161.574219 243.199219 161.320312 C 243.199219 161.0625 243.378906 160.839844 243.640625 160.761719 L 251.15625 158.621094 L 253.480469 151.683594 " fill-opacity="1" fill-rule="evenodd"/><path fill="#e7e8f0" d="M 147.578125 155.339844 C 143.917969 159.171875 143.398438 163.703125 144.871094 167.214844 C 146.351562 170.753906 149.960938 173.542969 155.289062 173.542969 L 199.566406 173.542969 C 203.210938 173.542969 205.839844 172.148438 207.605469 170.183594 C 210.171875 167.320312 210.898438 163.019531 209.765625 159.253906 C 208.472656 154.953125 204.921875 151.445312 199.566406 151.445312 L 186.328125 151.445312 C 185.46875 151.445312 184.574219 151.464844 183.664062 151.5 C 187.125 148.988281 190.632812 146.191406 194.773438 142.671875 C 194.835938 142.621094 194.898438 142.566406 194.957031 142.503906 C 207.066406 130.71875 209.84375 116.96875 206.097656 106.253906 C 202.285156 95.339844 191.667969 87.222656 176.285156 87.222656 C 165.019531 87.222656 153.824219 91.875 148 103.253906 C 147.96875 103.316406 147.941406 103.375 147.914062 103.4375 C 144.566406 110.96875 147.738281 116.371094 152.132812 118.691406 C 156.667969 121.089844 162.945312 120.238281 166.402344 114.796875 C 166.402344 114.796875 166.402344 114.792969 166.402344 114.792969 C 168.667969 111.21875 172.539062 108.867188 176.285156 108.867188 C 180.535156 108.867188 183.246094 110.390625 184.328125 112.925781 C 186.136719 117.175781 183.871094 123.109375 179.027344 126.902344 C 178.953125 126.957031 178.886719 127.015625 178.820312 127.074219 C 167.675781 137.183594 157.917969 144.316406 147.578125 155.339844 " fill-opacity="1" fill-rule="nonzero"/></svg>