<svg xmlns="http://www.w3.org/2000/svg" xmlns:xlink="http://www.w3.org/1999/xlink" width="500" zoomAndPan="magnify" viewBox="0 0 375 374.999991" height="500" preserveAspectRatio="xMidYMid meet" version="1.0"><defs><clipPath id="8283a589ff"><path d="M 124.875 170 L 208 170 L 208 262.5 L 124.875 262.5 Z M 124.875 170 " clip-rule="nonzero"/></clipPath><clipPath id="cb9eadc3fb"><path d="M 167 169 L 250.125 169 L 250.125 262 L 167 262 Z M 167 169 " clip-rule="nonzero"/></clipPath><clipPath id="24c5892703"><path d="M 139 112.5 L 236 112.5 L 236 209 L 139 209 Z M 139 112.5 " clip-rule="nonzero"/></clipPath><clipPath id="6ad586e1d0"><path d="M 48.878906 157 L 219 157 L 219 347.25 L 48.878906 347.25 Z M 48.878906 157 " clip-rule="nonzero"/></clipPath><clipPath id="59c041890c"><path d="M 137 155 L 307.628906 155 L 307.628906 346 L 137 346 Z M 137 155 " clip-rule="nonzero"/></clipPath><clipPath id="304351a6ae"><path d="M 79 37.5 L 278 37.5 L 278 236 L 79 236 Z M 79 37.5 " clip-rule="nonzero"/></clipPath></defs><g clip-path="url(#8283a589ff)"><path fill="#db2f14" d="M 158.023438 170.476562 L 207.035156 194.296875 L 173.886719 262.496094 L 158.960938 230.226562 L 124.878906 238.671875 L 158.023438 170.476562 " fill-opacity="1" fill-rule="evenodd"/></g><path fill="#ff430e" d="M 165.203125 174.632812 L 199.367188 190.582031 L 174.332031 242.976562 L 164.640625 219.867188 L 139.550781 226.664062 L 165.203125 174.632812 " fill-opacity="1" fill-rule="evenodd"/><g clip-path="url(#cb9eadc3fb)"><path fill="#db2f14" d="M 216.71875 169.410156 L 167.796875 193.410156 L 201.195312 261.488281 L 216.003906 229.164062 L 250.117188 237.488281 L 216.71875 169.410156 " fill-opacity="1" fill-rule="evenodd"/></g><path fill="#ff430e" d="M 209.558594 173.597656 L 175.449219 189.667969 L 200.679688 241.96875 L 210.285156 218.824219 L 235.398438 225.53125 L 209.558594 173.597656 " fill-opacity="1" fill-rule="evenodd"/><g clip-path="url(#24c5892703)"><path fill="#f9a159" d="M 187.496094 112.5 C 213.980469 112.5 235.480469 134 235.480469 160.480469 C 235.480469 186.964844 213.980469 208.464844 187.496094 208.464844 C 161.015625 208.464844 139.515625 186.964844 139.515625 160.480469 C 139.515625 134 161.015625 112.5 187.496094 112.5 " fill-opacity="1" fill-rule="evenodd"/></g><path fill="#fa6b25" d="M 187.496094 122.832031 C 207.921875 122.832031 224.503906 139.703125 224.503906 160.480469 C 224.503906 181.261719 207.921875 198.132812 187.496094 198.132812 C 167.074219 198.132812 150.492188 181.261719 150.492188 160.480469 C 150.492188 139.703125 167.074219 122.832031 187.496094 122.832031 " fill-opacity="1" fill-rule="evenodd"/><path fill="#ffca96" d="M 156.628906 138.707031 C 156.679688 138.550781 156.84375 138.4375 157.023438 138.4375 C 157.207031 138.4375 157.367188 138.550781 157.421875 138.707031 L 158.949219 143.273438 L 163.890625 144.683594 C 164.066406 144.734375 164.183594 144.882812 164.183594 145.050781 C 164.183594 145.21875 164.066406 145.367188 163.890625 145.417969 L 158.949219 146.828125 L 157.421875 151.390625 C 157.367188 151.550781 157.207031 151.660156 157.023438 151.660156 C 156.84375 151.660156 156.679688 151.550781 156.628906 151.390625 L 155.101562 146.828125 L 150.15625 145.417969 C 149.984375 145.367188 149.863281 145.21875 149.863281 145.050781 C 149.863281 144.882812 149.984375 144.734375 150.15625 144.683594 L 155.101562 143.273438 L 156.628906 138.707031 " fill-opacity="1" fill-rule="evenodd"/><path fill="#ffca96" d="M 217.261719 175.425781 C 217.316406 175.261719 217.480469 175.152344 217.664062 175.152344 C 217.847656 175.152344 218.011719 175.261719 218.066406 175.425781 L 219.617188 180.058594 L 224.632812 181.488281 C 224.808594 181.539062 224.929688 181.691406 224.929688 181.859375 C 224.929688 182.03125 224.808594 182.179688 224.632812 182.234375 L 219.617188 183.664062 L 218.066406 188.296875 C 218.011719 188.457031 217.847656 188.570312 217.664062 188.570312 C 217.480469 188.570312 217.316406 188.457031 217.261719 188.296875 L 215.710938 183.664062 L 210.695312 182.234375 C 210.519531 182.179688 210.398438 182.03125 210.398438 181.859375 C 210.398438 181.691406 210.519531 181.539062 210.695312 181.488281 L 215.710938 180.058594 L 217.261719 175.425781 " fill-opacity="1" fill-rule="evenodd"/><path fill="#ffca96" d="M 149.464844 148.09375 C 149.5 147.984375 149.605469 147.910156 149.730469 147.910156 C 149.851562 147.910156 149.960938 147.984375 149.996094 148.09375 L 151.019531 151.15625 L 154.335938 152.101562 C 154.453125 152.132812 154.535156 152.234375 154.535156 152.347656 C 154.535156 152.460938 154.453125 152.558594 154.335938 152.59375 L 151.019531 153.539062 L 149.996094 156.601562 C 149.960938 156.710938 149.851562 156.78125 149.730469 156.78125 C 149.605469 156.78125 149.5 156.710938 149.464844 156.601562 L 148.4375 153.539062 L 145.121094 152.59375 C 145.003906 152.558594 144.925781 152.460938 144.925781 152.347656 C 144.925781 152.234375 145.003906 152.132812 145.121094 152.101562 L 148.4375 151.15625 L 149.464844 148.09375 " fill-opacity="1" fill-rule="evenodd"/><path fill="#ffca96" d="M 224.421875 167.800781 C 224.464844 167.679688 224.582031 167.601562 224.714844 167.601562 C 224.851562 167.601562 224.96875 167.679688 225.007812 167.800781 L 226.132812 171.160156 L 229.769531 172.195312 C 229.898438 172.230469 229.984375 172.34375 229.984375 172.464844 C 229.984375 172.589844 229.898438 172.699219 229.769531 172.734375 L 226.132812 173.773438 L 225.007812 177.132812 C 224.96875 177.25 224.851562 177.332031 224.714844 177.332031 C 224.582031 177.332031 224.464844 177.25 224.421875 177.132812 L 223.300781 173.773438 L 219.664062 172.734375 C 219.535156 172.699219 219.445312 172.589844 219.445312 172.464844 C 219.445312 172.34375 219.535156 172.230469 219.664062 172.195312 L 223.300781 171.160156 L 224.421875 167.800781 " fill-opacity="1" fill-rule="evenodd"/><path fill="#ffca96" d="M 178.371094 156.011719 C 175.992188 157.910156 175.789062 161.34375 177.484375 163.511719 C 178.578125 164.910156 180.453125 165.875 183.105469 165.394531 C 184.855469 165.214844 187.308594 164.90625 189.335938 165.3125 C 190.199219 165.488281 190.988281 165.769531 191.453125 166.421875 C 191.746094 166.835938 191.882812 167.390625 191.882812 168.09375 C 191.882812 169.289062 191.570312 170.175781 190.988281 170.796875 C 190.03125 171.808594 188.503906 172.105469 186.992188 172.105469 C 185.078125 172.105469 183.273438 171.433594 182.171875 169.992188 C 182.167969 169.988281 182.167969 169.988281 182.167969 169.984375 C 180.867188 168.296875 179.1875 167.648438 177.613281 167.664062 C 175.34375 167.6875 173.253906 169.160156 172.53125 171.199219 C 172.042969 172.570312 172.117188 174.21875 173.230469 175.878906 C 176.113281 180.371094 181.039062 182.476562 186.050781 182.476562 C 191.664062 182.476562 195.78125 180.800781 198.515625 178.25 C 201.347656 175.605469 202.75 172 202.75 168.09375 C 202.75 162.28125 198.753906 157.324219 193.089844 155.9375 L 199.3125 150.121094 C 199.328125 150.105469 199.339844 150.09375 199.355469 150.078125 C 201.171875 148.261719 201.464844 145.925781 200.738281 144.058594 C 199.996094 142.148438 198.179688 140.675781 195.660156 140.675781 L 178.757812 140.675781 C 172.128906 140.675781 171.710938 151.15625 178.757812 151.15625 L 183.625 151.15625 L 178.367188 156.011719 L 178.371094 156.011719 " fill-opacity="1" fill-rule="nonzero"/><g clip-path="url(#6ad586e1d0)"><path fill="#db2f14" d="M 117.363281 157.21875 L 218.613281 206.40625 L 150.132812 347.238281 L 119.292969 280.605469 L 48.882812 298.046875 L 117.363281 157.21875 " fill-opacity="1" fill-rule="evenodd"/></g><path fill="#ff430e" d="M 132.191406 165.804688 L 202.773438 198.738281 L 151.050781 306.933594 L 131.027344 259.210938 L 79.199219 273.25 L 132.191406 165.804688 " fill-opacity="1" fill-rule="evenodd"/><g clip-path="url(#59c041890c)"><path fill="#db2f14" d="M 238.621094 155.019531 L 137.550781 204.582031 L 206.546875 345.160156 L 237.140625 278.414062 L 307.613281 295.597656 L 238.621094 155.019531 " fill-opacity="1" fill-rule="evenodd"/></g><path fill="#ff430e" d="M 223.824219 163.664062 L 153.363281 196.855469 L 205.484375 304.855469 L 225.328125 257.0625 L 277.207031 270.910156 L 223.824219 163.664062 " fill-opacity="1" fill-rule="evenodd"/><g clip-path="url(#304351a6ae)"><path fill="#f9a159" d="M 178.25 37.496094 C 232.957031 37.496094 277.375 81.898438 277.375 136.582031 C 277.375 191.269531 232.957031 235.667969 178.25 235.667969 C 123.539062 235.667969 79.121094 191.269531 79.121094 136.582031 C 79.121094 81.898438 123.539062 37.496094 178.25 37.496094 " fill-opacity="1" fill-rule="evenodd"/></g><path fill="#fa6b25" d="M 178.25 58.832031 C 220.445312 58.832031 254.699219 93.671875 254.699219 136.582031 C 254.699219 179.496094 220.445312 214.332031 178.25 214.332031 C 136.054688 214.332031 101.796875 179.496094 101.796875 136.582031 C 101.796875 93.671875 136.054688 58.832031 178.25 58.832031 " fill-opacity="1" fill-rule="evenodd"/><path fill="#ffca96" d="M 114.476562 91.621094 C 114.585938 91.292969 114.921875 91.0625 115.296875 91.0625 C 115.671875 91.0625 116.003906 91.292969 116.117188 91.621094 L 119.269531 101.046875 L 129.484375 103.960938 C 129.84375 104.0625 130.085938 104.367188 130.085938 104.714844 C 130.085938 105.0625 129.84375 105.371094 129.484375 105.472656 L 119.269531 108.382812 L 116.117188 117.808594 C 116.003906 118.140625 115.671875 118.367188 115.296875 118.367188 C 114.921875 118.367188 114.585938 118.140625 114.476562 117.808594 L 111.320312 108.382812 L 101.109375 105.472656 C 100.75 105.371094 100.503906 105.0625 100.503906 104.714844 C 100.503906 104.367188 100.75 104.0625 101.109375 103.960938 L 111.320312 101.046875 L 114.476562 91.621094 " fill-opacity="1" fill-rule="evenodd"/><path fill="#ffca96" d="M 239.738281 167.441406 C 239.851562 167.105469 240.1875 166.875 240.570312 166.875 C 240.953125 166.875 241.289062 167.105469 241.402344 167.441406 L 244.605469 177.007812 L 254.96875 179.960938 C 255.332031 180.066406 255.582031 180.378906 255.582031 180.730469 C 255.582031 181.082031 255.332031 181.390625 254.96875 181.496094 L 244.605469 184.453125 L 241.402344 194.015625 C 241.289062 194.351562 240.953125 194.582031 240.570312 194.582031 C 240.1875 194.582031 239.851562 194.351562 239.738281 194.015625 L 236.539062 184.453125 L 226.175781 181.496094 C 225.808594 181.390625 225.5625 181.082031 225.5625 180.730469 C 225.5625 180.378906 225.808594 180.066406 226.175781 179.960938 L 236.539062 177.007812 L 239.738281 167.441406 " fill-opacity="1" fill-rule="evenodd"/><path fill="#ffca96" d="M 99.675781 110.996094 C 99.75 110.777344 99.972656 110.625 100.226562 110.625 C 100.476562 110.625 100.699219 110.777344 100.773438 110.996094 L 102.890625 117.324219 L 109.746094 119.277344 C 109.984375 119.34375 110.152344 119.550781 110.152344 119.785156 C 110.152344 120.015625 109.984375 120.222656 109.746094 120.292969 L 102.890625 122.246094 L 100.773438 128.570312 C 100.699219 128.792969 100.476562 128.945312 100.226562 128.945312 C 99.972656 128.945312 99.75 128.792969 99.675781 128.570312 L 97.558594 122.246094 L 90.707031 120.292969 C 90.464844 120.222656 90.300781 120.015625 90.300781 119.785156 C 90.300781 119.550781 90.464844 119.34375 90.707031 119.277344 L 97.558594 117.324219 L 99.675781 110.996094 " fill-opacity="1" fill-rule="evenodd"/><path fill="#ffca96" d="M 254.535156 151.691406 C 254.617188 151.449219 254.859375 151.28125 255.136719 151.28125 C 255.414062 151.28125 255.660156 151.449219 255.738281 151.691406 L 258.0625 158.628906 L 265.578125 160.773438 C 265.839844 160.847656 266.019531 161.074219 266.019531 161.328125 C 266.019531 161.585938 265.839844 161.808594 265.578125 161.886719 L 258.0625 164.027344 L 255.738281 170.964844 C 255.660156 171.207031 255.414062 171.375 255.136719 171.375 C 254.859375 171.375 254.617188 171.207031 254.535156 170.964844 L 252.210938 164.027344 L 244.699219 161.886719 C 244.433594 161.808594 244.253906 161.585938 244.253906 161.328125 C 244.253906 161.074219 244.433594 160.847656 244.699219 160.773438 L 252.210938 158.628906 L 254.535156 151.691406 " fill-opacity="1" fill-rule="evenodd"/><path fill="#ffca96" d="M 159.394531 127.351562 C 154.484375 131.273438 154.0625 138.359375 157.566406 142.839844 C 159.820312 145.726562 163.695312 147.71875 169.175781 146.726562 C 172.789062 146.355469 177.859375 145.71875 182.050781 146.5625 C 183.832031 146.917969 185.460938 147.5 186.421875 148.851562 C 187.027344 149.707031 187.308594 150.847656 187.308594 152.304688 C 187.308594 154.765625 186.660156 156.601562 185.460938 157.878906 C 183.484375 159.976562 180.328125 160.585938 177.203125 160.585938 C 173.253906 160.585938 169.527344 159.199219 167.246094 156.21875 C 167.242188 156.214844 167.238281 156.210938 167.238281 156.207031 C 164.550781 152.722656 161.085938 151.382812 157.828125 151.414062 C 153.140625 151.460938 148.828125 154.503906 147.332031 158.714844 C 146.320312 161.546875 146.476562 164.949219 148.78125 168.378906 C 154.734375 177.65625 164.910156 182 175.261719 182 C 186.855469 182 195.363281 178.539062 201.015625 173.269531 C 206.863281 167.816406 209.757812 160.367188 209.757812 152.304688 C 209.757812 140.300781 201.503906 130.058594 189.800781 127.195312 L 202.65625 115.1875 C 202.6875 115.15625 202.71875 115.128906 202.746094 115.101562 C 206.503906 111.347656 207.105469 106.523438 205.601562 102.667969 C 204.066406 98.726562 200.316406 95.679688 195.113281 95.679688 L 160.199219 95.679688 C 146.5 95.679688 145.632812 117.324219 160.199219 117.324219 L 170.25 117.324219 L 159.390625 127.355469 L 159.394531 127.351562 " fill-opacity="1" fill-rule="nonzero"/></svg>